<svg xmlns="http://www.w3.org/2000/svg" viewBox="0 0 56.94 14.85"><path fill="#00adee" d="M18.21 7.27v-.35c.46-.07.49-.15.49-.71V4.38c0-.8-.33-1.07-.74-1.07-.25 0-.52.07-.76.3V6.2c0 .56.05.63.53.71v.35h-2.47v-.35c.51-.06.6-.09.6-.75V1.37c0-.48-.06-.59-.64-.68V.36A11 11 0 0 0 17.2.01v3.22c.36-.35.87-.67 1.4-.67.9 0 1.44.59 1.44 1.73v1.9c0 .65.07.66.57.75v.35H18.2ZM23.73 2.54c1.46 0 2.39 1.1 2.39 2.34 0 1.67-1.2 2.51-2.43 2.51a2.36 2.36 0 0 1-2.46-2.4 2.45 2.45 0 0 1 2.5-2.46Zm-.12.42c-.45 0-.88.47-.88 1.74s.43 2.27 1.08 2.27c.39 0 .82-.27.82-1.78s-.37-2.23-1.02-2.23M32.04 7.02q-.94.13-1.97.37v-.71c-.43.35-.86.71-1.43.71-.87 0-1.36-.56-1.36-1.48V3.76c0-.48-.06-.53-.34-.6l-.22-.06v-.33c.53-.02 1.35-.09 1.93-.18q-.03.67-.03 1.57v1.51c0 .67.34.9.71.9.29 0 .52-.06.75-.3v-2.5c0-.48-.05-.56-.34-.61l-.31-.06v-.33c.6-.02 1.48-.09 2-.18v3.38c0 .54.06.65.39.68l.23.02v.34ZM35.44 4.01q-.39-1.08-1.11-1.06a.54.54 0 0 0-.55.55c0 .36.26.56.8.8.84.37 1.41.73 1.41 1.55 0 1.04-.99 1.55-1.89 1.55-.54 0-1.1-.21-1.32-.31l-.17-1.32.34-.06c.22.65.64 1.27 1.32 1.27.39 0 .59-.24.59-.54 0-.32-.16-.56-.8-.87-.68-.33-1.35-.7-1.35-1.56s.67-1.46 1.77-1.46c.5 0 .88.1 1.12.16.03.28.12.94.17 1.22zM40.76 6.25a2.4 2.4 0 0 1-1.9 1.14c-1.39 0-2.18-1.03-2.18-2.26 0-.73.34-1.44.78-1.87a2.3 2.3 0 0 1 1.62-.73 1.7 1.7 0 0 1 1.71 1.69c0 .18-.01.35-.13.38-.2.05-1.66.12-2.67.17.04 1.1.65 1.66 1.4 1.66q.61 0 1.18-.47zm-1.88-3.28c-.41 0-.77.49-.83 1.31l1.26-.03c.15-.01.21-.03.21-.21.01-.52-.23-1.07-.63-1.07Z"/><path fill="#ee4036" d="M46.45 2.7c-.6.1-.69.22-.93.75-.39.89-.97 2.26-1.64 3.95h-.47q-.82-2.06-1.61-3.98c-.2-.48-.31-.61-.89-.71v-.38h2.79v.38c-.5.1-.57.19-.44.56l.86 2.3c.19-.49.57-1.46.83-2.23.11-.33.09-.55-.6-.62v-.38h2.1v.38ZM51 6.18c-.68 1-1.57 1.23-2.04 1.23-1.49 0-2.34-1.1-2.34-2.43 0-.78.37-1.55.84-2.01a2.5 2.5 0 0 1 1.74-.78c1.09 0 1.85.9 1.84 1.82 0 .19-.01.38-.14.41-.21.06-1.78.13-2.87.18.04 1.18.7 1.78 1.51 1.78q.66 0 1.27-.5l.2.3Zm-2.03-3.54c-.45 0-.83.52-.89 1.41l1.35-.03c.16-.01.22-.03.22-.22.01-.56-.25-1.15-.68-1.15ZM54.1 7.28a1 1 0 0 1-.45.12c-.86 0-1.37-.4-1.37-1.42V2.87h-.71l-.07-.13.32-.42h.46v-.93c.38-.27.93-.62 1.32-.89l.15.09q-.02.46-.02 1.73h1.11c.1.11.06.46-.09.56h-1.03v2.73c0 .87.36.97.57.97.19 0 .33-.03.54-.11l.11.4z"/><path fill="#ee4036" d="M56.64 8.14c4.42-1.26-41.56 5.75-43.51 0-1.08-3.17 21.17 6.38 43.51 0"/><path fill="#ee4036" d="M13.16 2.31c.16 0 .28.12.3.17s.06.14.1.17.12.37.08.46-.21.14-.25.25-.12.31-.19.34-.21-.05-.27.03-.09.13-.08.26.2.63.21.83.09.09 0 .35-.16.36-.1.45.15.12.19.23.1.46.11.57-.05.7 0 .8.09.29.32.29.86 0 1.09.05.41.09.6.1.26-.01.46.07.31.12.35.11.3-.06.41-.06.11 0 .21.05.24.21.32.24.07.11.05.14-.21.06-.24.11-.09.09-.16.11-.07-.06-.11.04-.18.18-.27.19-.43-.09-.52-.11-.5-.07-.69 0-1.89.12-2.01.1-.71.09-.99.11-.48.05-.52-.08-.01-.49-.07-.53.06.19-.12.36-.29.22-.44.23-.14-.15-.21-.17-.5-1.03-.64-.99H9.7c-.12 0-.17.03-.35.03-.15 0-.19 1.12-.36 1.12-.8 0-1.73 0-1.77-.02-.07-.02-.57-.04-1.02-.45 0 0 1.09-.7.03-1.85 0 0 .38.55.37.91 0 .46-.39.76-.39.76-.16.27-.42.23-.47.25-.07.03-.23.08-.22.13s0 .08.11.04.43-.1.55-.04.43.28.45.36 0 .22-.21.25-.29.09-.43.05-.41-.17-.53-.18-.85.09-.94.02-.4-.08-.25-.3.24-.24.19-.3-.26-.16-.32-.42-.05-.36-.13-.34-.89.84-1.6.86-1.08-.29-1.25-.32-.54-.16-.74-.4-.45-.44-.42-.53.09-.16.21-.11.73.36 1.04.39.76-.04.91.04.35.15.7.03 1.2-.87 1.28-.9.67-.8 1.11-1.02 1.03-.28 1.07-.27.92.01 1.42.1.94.04 1.36-.28.58-.15.8-.26.38-.22.44-.26.09-.1.08-.19.04-.5.01-.62c-.05-.17-.18-.23-.28-.29s-.23-.09-.2-.19.23-.32.29-.41.03-.04.2-.24.38-.46.51-.47.33-.07.39-.11.24-.26.42-.28.24-.04.41.01c.38.12.44.44.99.42Z"/><path fill="#00adee" d="M14.01 5.46s-.69.39-1.1.84-.64.85-.64.85-.23.27-.55.33c-.41.07-2.05-.24-2.83-.33a2.6 2.6 0 0 0-2.72 2.98c.02.28.16.5.26.84 0 0 2.09 2.76-.12 3.58 0 0-.21.12-.02.3 0 0 .76.12 1.26-.96s-.09-2.24-.09-2.24l-.42-.81s-.15-.63.47-.87h3.55s.05-.42-.46-.42-1.13-.28-1.13-.31.71-.62.17-1.57c0 0 .54.39.21 1.43 0 0 .6.22.7.23s.77-.04.74.63h1.67s-.02-.36.14-.49c0 0-.09.46.2.5h2.8s.03-.45-.45-.42-1.06-.29-1.17-.3-.05-.35-.13-.5-.58-.49-.51-.67.12-.28.26-.29.42.01.51-.01.26-.14.28-.26-.01-.3 0-.35.02-.12-.03-.14-.25-.21-.29-.32-.09-.25-.21-.33-.39-.18-.4-.22.09-.52.11-.56.05-.15-.04-.11Z"/></svg>